<?xml version="1.0" encoding="iso-8859-1"?>
<!-- Generator: Adobe Illustrator 19.0.0, SVG Export Plug-In . SVG Version: 6.00 Build 0)  -->
<svg version="1.1" id="Capa_1" xmlns="http://www.w3.org/2000/svg" xmlns:xlink="http://www.w3.org/1999/xlink" x="0px" y="0px"
	 viewBox="0 0 512 512" style="enable-background:new 0 0 512 512;" xml:space="preserve">
<linearGradient id="SVGID_1_" gradientUnits="userSpaceOnUse" x1="0" y1="258.0005" x2="512" y2="258.0005" gradientTransform="matrix(1 0 0 -1 0 514.0004)">
	<stop  offset="0" style="stop-color:#80D8FF"/>
	<stop  offset="1" style="stop-color:#EA80FC"/>
</linearGradient>
<path style="fill:url(#SVGID_1_);" d="M501.017,97.153c-6.737-3.411-14.814-2.73-20.887,1.76L321.293,216.312V115.045
	c0-11.071-8.954-20.045-20-20.045H20c-11.046,0-20,8.974-20,20.045v281.91C0,408.026,8.954,417,20,417h281.293
	c11.046,0,20-8.974,20-20.045V295.688L480.13,413.087c6.084,4.497,14.163,5.164,20.887,1.76
	c6.735-3.409,10.983-10.329,10.983-17.892v-281.91C512,107.482,507.752,100.563,501.017,97.153z M281.293,376.911H40V135.09h241.293
	V376.911z M472,357.267L334.99,256L472,154.733V357.267z M160.646,175.641c-44.212,0-80.182,36.049-80.182,80.359
	s35.97,80.359,80.182,80.359S240.828,300.31,240.828,256S204.858,175.641,160.646,175.641z M160.646,296.27
	c-22.156,0-40.182-18.065-40.182-40.27s18.025-40.27,40.182-40.27s40.182,18.065,40.182,40.27S182.803,296.27,160.646,296.27z"/>
<g>
</g>
<g>
</g>
<g>
</g>
<g>
</g>
<g>
</g>
<g>
</g>
<g>
</g>
<g>
</g>
<g>
</g>
<g>
</g>
<g>
</g>
<g>
</g>
<g>
</g>
<g>
</g>
<g>
</g>
</svg>
